<?xml version="1.0" encoding="utf-8"?>
<!-- Generator: Adobe Illustrator 16.0.0, SVG Export Plug-In . SVG Version: 6.00 Build 0)  -->
<!DOCTYPE svg PUBLIC "-//W3C//DTD SVG 1.1//EN" "http://www.w3.org/Graphics/SVG/1.1/DTD/svg11.dtd">
<svg version="1.1" id="Layer_1" xmlns="http://www.w3.org/2000/svg" xmlns:xlink="http://www.w3.org/1999/xlink" x="0px" y="0px"
	 width="1000px" height="1000px" viewBox="0 0 1000 1000" enable-background="new 0 0 1000 1000" xml:space="preserve">
<rect x="-1020" y="-1020" display="none" fill="#7C7C7C" width="3040" height="3040"/>
<g id="carac_2_">
	<polygon fill="none" stroke="#FFFFFF" stroke-width="22.1184" stroke-miterlimit="10" points="864.273,706.244 675.533,654.103 
		797.4,759.921 635.531,694.926 739.125,871.441 584.555,716.654 568.484,871.829 481.004,752.338 467.008,854.614 438.236,747.154 
		386.871,871.441 373.133,724.82 237.313,896 326.045,676.111 107.107,816.016 280.686,609.864 123.826,667.17 257.615,569.861 
		107.107,585.305 244.959,510.072 115.66,453.287 214.545,439.052 115.66,377.275 220.551,356.475 115.66,151.814 337.881,305.39 
		241.027,127.623 388.123,270.981 367.561,140.668 462.773,248.54 481.004,96 526.148,266.791 642.918,114.619 574.402,270.831 
		786.125,168.576 632.68,293.597 795.457,265.322 696.053,346.862 858.658,311.827 726.467,402.591 882.893,397.407 
		736.359,487.825 846.303,503.074 720.592,549.6 873.563,605.761 719.252,597.12 	"/>
</g>
</svg>
